<?xml version="1.0" encoding="utf-8"?>
<!-- Generator: Adobe Illustrator 17.0.0, SVG Export Plug-In . SVG Version: 6.00 Build 0)  -->
<!DOCTYPE svg PUBLIC "-//W3C//DTD SVG 1.1//EN" "http://www.w3.org/Graphics/SVG/1.1/DTD/svg11.dtd">
<svg version="1.1" id="Layer_1" xmlns="http://www.w3.org/2000/svg" xmlns:xlink="http://www.w3.org/1999/xlink" x="0px" y="0px"
	 width="315.521px" height="90.271px" viewBox="-1.229 -1.229 315.521 90.271"
	 enable-background="new -1.229 -1.229 315.521 90.271" xml:space="preserve">
<line display="none" fill="none" stroke="#231F20" stroke-miterlimit="10" x1="-425.25" y1="-18.625" x2="-425.25" y2="117"/>
<g display="none">
	<path display="inline" fill="#FDBD53" d="M28.687-109.702c-0.553-0.4-1.77-1.163-2.303-1.465c-1.997-1.13-4.387-2.584-7.146-2.917
		c-6.101-0.735-11.34,1.237-14.435,3.803c-3.114,2.582-4.904,6.421-5.479,11.007c-0.43,11.265,9.137,20.896,9.137,20.896
		c5.836,7.039,18.438,16.975,25.037,20.42c0.368,0.196,0.68,0.416,0.894,0.619c0,0,2.554,2.154-0.35,4.518
		c-3.394,2.762-11.769-4.936-16.455-8.244c-0.42-0.297-1.188-0.804-1.805,0.311c-0.375,0.678,0.02,1.458,0.93,2.464
		c0.204,0.217,0.406,0.427,0.605,0.631c0.722,0.719,1.64,1.542,2.694,2.511l-0.018,0.001c2.368,2.005,4.781,3.478,8.33,5.507
		c0.367,0.196,0.681,0.421,0.894,0.624c0,0,2.554,2.165-0.349,4.528c-3.394,2.762-11.768-4.915-16.454-8.223
		c-0.42-0.297-1.186-0.761-1.803,0.354c-0.695,1.255,1.242,2.942,4.233,5.692c1.11,1.02,4.425,3.643,7.503,5.717
		c0.828,0.558,1.106,0.692,1.516,1.238c1.5,2-0.789,3.918-1.851,4.299c-1.868,0.67-6.915-1.068-15.596-9.906
		c0,0-1.924-2.18-2.83-0.315C2.729-43.869,18.114-30.01,21.522-26.97c0.41,0.366,1.028-0.474,1.028-0.474l1.029,0.388l45.607-47.963
		l0.411-1.311c0,0-0.216-0.728-0.254-0.955C65.172-80.702,38.651-102.487,28.687-109.702z"/>
	<circle display="inline" fill="#FDBD53" cx="68.279" cy="-76.218" r="1.506"/>
	<circle display="inline" fill="#FDBD53" cx="22.466" cy="-28.093" r="1.506"/>
</g>
<path fill="#9D59A3" d="M73.876,40.583c0,0-0.001-0.002-0.001-0.003c-3.923-3.702-28.332-27.151-37.768-35.045
	c-0.524-0.438-1.685-1.284-2.195-1.622c-1.913-1.267-5.844-3.5-8.573-4.025C19.303-1.27,15.588,0.95,12.321,3.292
	c-3.287,2.358-5.34,6.064-6.233,10.599c-1.215,11.208,7.657,21.482,7.657,21.482c1.373,1.912,3.183,4.049,5.217,6.232
	c5.901,6.395,13.855,13.28,18.651,16.226c0.335,0.21,3.728,2.766,0.184,5.161c-3.625,2.452-17.938-12.047-22.382-15.673
	c-0.398-0.326-1.234-0.62-1.822,0.184c-0.458,0.626-0.082,1.456,0.756,2.523c0.108,0.132,0.264,0.344,0.414,0.545
	c5.475,5.529,11.911,10.958,16.024,13.486c0.335,0.21,3.728,2.766,0.184,5.161C27.347,71.671,13.033,57.172,8.59,53.546
	c-0.398-0.326-1.234-0.62-1.822,0.184c-0.458,0.626-0.082,1.456,0.756,2.523c0.188,0.231,0.529,0.716,0.714,0.933
	c0.486,0.556,1.073,1.178,1.734,1.872c4.844,4.629,10.032,8.884,13.534,11.037c0.335,0.21,3.728,2.766,0.184,5.161
	C20.064,77.709,5.75,63.211,1.307,59.584c-0.398-0.326-1.234-0.62-1.822,0.184c-0.458,0.626-0.082,1.456,0.756,2.523
	c0.108,0.132,19.329,21.365,19.329,21.365c1.615,1.707,2.906,3.048,3.577,3.736c0.006,0.005,0.012,0.006,0.017,0.011
	c0.247,0.246,0.577,0.412,0.953,0.439c0.429,0.03,0.827-0.126,1.12-0.395l0.003,0.001l48.723-44.52
	c0.003-0.003,0.006-0.007,0.01-0.009l0.008-0.007l0.001-0.002c0.282-0.252,0.471-0.609,0.499-1.016
	C74.518,41.364,74.273,40.88,73.876,40.583z"/>
<g>
	<g>
		<g>
			<path fill="#665B69" d="M250.131,44.304c0-9.346-2.324-15.259-13.595-15.259c-10.335,0-13.854,4.647-13.854,15.849
				c0,9.155,2.74,15.866,13.213,15.866c5.489,0,9.533-0.54,12.681-1.045c0.463-0.074,0.787-0.498,0.735-0.964l-0.452-4.093
				c-0.026-0.233-0.144-0.447-0.328-0.593s-0.419-0.212-0.652-0.184c-2.986,0.362-6.467,0.706-10.25,0.706
				c-4.456,0-7.023-1.179-7.3-6h18.721c0.445,0,0.821-0.333,0.873-0.775C250.062,46.641,250.131,45.455,250.131,44.304z
				 M242.71,43.316h-12.606c0-4.838,0.763-8.375,6.433-8.375C241.609,34.941,242.71,38.114,242.71,43.316z"/>
			<path fill="#665B69" d="M277.47,21.467c0-3.208,1.092-4.352,4.543-4.352c3.433,0,4.543,1.144,4.543,4.352
				s-1.075,4.352-4.543,4.352C278.527,25.82,277.47,24.675,277.47,21.467z M278.146,30.341c0-0.486,0.394-0.88,0.88-0.88h5.992
				c0.486,0,0.88,0.394,0.88,0.88v29.123c0,0.486-0.394,0.88-0.88,0.88h-5.992c-0.486,0-0.88-0.394-0.88-0.88V30.341z"/>
			<path fill="#665B69" d="M313.829,58.807c0.052,0.446-0.24,0.858-0.678,0.958c-2.544,0.581-5.615,0.995-9.341,0.995
				c-10.352,0-11.947-7.872-11.947-16.143c0-10.109,2.376-15.571,13.733-15.571c3.121,0,5.539,0.413,7.55,0.969
				c0.416,0.115,0.687,0.515,0.64,0.943l-0.439,3.972c-0.027,0.243-0.154,0.464-0.351,0.61c-0.197,0.146-0.445,0.204-0.686,0.159
				c-1.554-0.291-3.093-0.532-4.669-0.532c-7.213,0-7.994,2.133-7.994,9.45c0,6.919,0.312,9.884,8.063,9.884
				c1.576,0,3.056-0.241,4.6-0.542c0.241-0.047,0.49,0.009,0.688,0.153c0.198,0.145,0.326,0.366,0.354,0.609L313.829,58.807z"/>
			<path fill="#665B69" d="M272.252,60.022c0.464-0.072,0.789-0.496,0.739-0.962c-0.071-0.661-0.194-1.807-0.403-3.746
				c-0.025-0.235-0.144-0.45-0.33-0.597c-0.186-0.146-0.423-0.212-0.658-0.181c-1.843,0.239-3.159,0.312-4.051,0.312
				c-2.584,0-3.659-1.006-3.659-3.572v-15.97h7.669c0.486,0,0.88-0.394,0.88-0.88v-4.084c0-0.486-0.394-0.88-0.88-0.88h-7.669
				v-7.688c0-0.258-0.113-0.503-0.31-0.67c-0.196-0.167-0.456-0.24-0.711-0.198l-5.922,0.963c-0.426,0.069-0.738,0.437-0.738,0.868
				v29.319c0,5.861,2.74,8.704,9.242,8.704C267.324,60.76,270.696,60.264,272.252,60.022z"/>
			<path fill="#665B69" d="M183.193,54.827L183.193,54.827V18.411c0-0.486-0.394-0.88-0.88-0.88h-5.94
				c-0.486,0-0.88,0.394-0.88,0.88v11.293c-1.838-0.399-4.023-0.659-5.896-0.659c-9.502,0-13.716,3.884-13.716,15.849
				c0,12.138,4.318,15.866,14.617,15.866c3.492,0,7.393-0.584,10.615-1.959C183.071,57.785,183.193,56.226,183.193,54.827z
				 M175.494,53.815c-1.13,0.6-3.197,0.911-4.994,0.911c-6.589,0-6.884-4.786-6.884-9.832c0-5.618,0.173-9.78,7.56-9.78
				c1.335,0,3.052,0.277,4.318,0.676L175.494,53.815L175.494,53.815z"/>
			<path fill="#665B69" d="M214.501,31.018c-3.219-1.386-7.136-1.973-10.641-1.973c-10.075,0-14.635,3.659-14.635,15.519
				c0,11.739,4.352,15.502,13.733,15.502c1.873,0,4.04-0.26,5.896-0.659v0.919c0,3.797-1.803,5.705-5.948,5.705
				c-3.242,0-7.284-0.386-10.311-0.781c-0.235-0.031-0.472,0.034-0.658,0.18s-0.305,0.361-0.331,0.596l-0.436,3.987
				c-0.051,0.463,0.269,0.885,0.728,0.962c3.221,0.544,7.738,1.159,11.962,1.159c6.919,0,12.675-1.942,12.675-10.005V34.967
				C216.535,33.579,216.412,32.034,214.501,31.018z M208.854,53.321c-1.266,0.399-2.983,0.676-4.335,0.676
				c-7.248,0-7.56-4.04-7.56-9.433c0-4.821,0.538-9.485,6.901-9.485c1.779,0,3.866,0.311,4.994,0.911V53.321z"/>
			<path fill="#665B69" d="M141.22,21.467c0-3.208,1.092-4.352,4.543-4.352c3.433,0,4.543,1.144,4.543,4.352
				s-1.075,4.352-4.543,4.352C142.278,25.82,141.22,24.675,141.22,21.467z M141.896,30.341c0-0.486,0.394-0.88,0.88-0.88h5.992
				c0.486,0,0.88,0.394,0.88,0.88v29.123c0,0.486-0.394,0.88-0.88,0.88h-5.992c-0.486,0-0.88-0.394-0.88-0.88V30.341z"/>
			<path fill="#665B69" d="M100.283,29.461c0.417,0,0.776,0.292,0.861,0.7l4.64,22.292l4.352-15.623
				c0.954-3.433,2.601-4.977,5.081-4.977s4.127,1.578,5.08,4.976l4.335,15.554l4.657-22.224c0.085-0.407,0.445-0.699,0.861-0.699
				h5.729c0.272,0,0.528,0.126,0.695,0.34s0.225,0.495,0.157,0.758l-6.446,25.102c-0.884,3.485-2.67,5.098-5.358,5.098
				c-2.67,0-4.509-1.63-5.549-5.081l-4.318-14.253l-4.196,14.236c-1.023,3.451-2.896,5.098-5.583,5.098
				c-2.722,0-4.491-1.561-5.41-5.133l-6.429-25.068c-0.067-0.263-0.01-0.543,0.157-0.758s0.423-0.34,0.695-0.34L100.283,29.461z"/>
		</g>
	</g>
</g>
</svg>
